<svg width="584" height="421" viewBox="0 0 584 421" fill="none" xmlns="http://www.w3.org/2000/svg">
<circle cx="21.5" cy="21.5" r="5.5" fill="white"/>
<circle cx="41.5" cy="21.5" r="5.5" fill="white"/>
<circle cx="61.5" cy="21.5" r="5.5" fill="white"/>
<line y1="42.5" x2="584" y2="42.5" stroke="#433F49"/>
<circle cx="38.5" cy="80.5" r="17.5" fill="#433F49"/>
<circle cx="38.5" cy="154.5" r="8.5" fill="#97959B"/>
<circle cx="38.5" cy="191.5" r="8.5" fill="#433F49"/>
<circle cx="38.5" cy="228.5" r="8.5" fill="#433F49"/>
<circle cx="38.5" cy="265.5" r="8.5" fill="#433F49"/>
<circle cx="38.5" cy="392.5" r="8.5" fill="#433F49"/>
<line x1="76.5" y1="43" x2="76.5" y2="421" stroke="#433F49"/>
<rect x="96" y="63" width="93" height="14" rx="3" fill="#97959B"/>
<rect x="96" y="85" width="64" height="10" rx="3" fill="#433F49"/>
<path fill-rule="evenodd" clip-rule="evenodd" d="M563 116H96V115H563V116Z" fill="#433F49"/>
<rect x="108" y="151.5" width="38" height="6" rx="3" fill="#97959B"/>
<rect x="108" y="161.5" width="64" height="10" rx="3" fill="#433F49"/>
<circle cx="182.5" cy="166.5" r="2.5" fill="#53C11F"/>
<rect x="96.5" y="136.5" width="106.75" height="50" rx="11.5" stroke="#433F49"/>
<rect x="227.75" y="151.5" width="54" height="6" rx="3" fill="#97959B"/>
<rect x="227.75" y="161.5" width="39" height="10" rx="3" fill="#433F49"/>
<circle cx="277.25" cy="166.5" r="2.5" fill="#F5841F"/>
<rect x="216.25" y="136.5" width="106.75" height="50" rx="11.5" stroke="#433F49"/>
<rect x="347.5" y="151.5" width="20" height="6" rx="3" fill="#97959B"/>
<rect x="347.5" y="161.5" width="47" height="10" rx="3" fill="#433F49"/>
<circle cx="405" cy="166.5" r="2.5" fill="#53C11F"/>
<rect x="336" y="136.5" width="106.75" height="50" rx="11.5" stroke="#433F49"/>
<rect x="467.25" y="151.5" width="55" height="6" rx="3" fill="#97959B"/>
<rect x="467.25" y="161.5" width="51" height="10" rx="3" fill="#433F49"/>
<circle cx="528.75" cy="166.5" r="2.5" fill="#53C11F"/>
<rect x="455.75" y="136.5" width="106.75" height="50" rx="11.5" stroke="#433F49"/>
<rect x="96" y="207" width="61" height="11" rx="3" fill="#97959B"/>
<path fill-rule="evenodd" clip-rule="evenodd" d="M124.534 258.432C124.534 257.831 124.392 257.286 124.107 256.797C123.822 256.305 123.433 255.927 122.952 255.652C122.614 255.457 122.13 255.278 121.494 255.118C122.086 254.917 122.561 254.663 122.921 254.355C123.281 254.047 123.557 253.693 123.749 253.292C123.94 252.89 124.035 252.466 124.035 252.019C124.035 251.404 123.854 250.839 123.495 250.324C123.132 249.809 122.614 249.413 121.941 249.139C121.678 249.033 121.366 248.952 121.031 248.887V246.495H118.736V248.725H117.261V246.495H114.966V248.725H111.465V250.6H112.001C112.356 250.6 112.598 250.633 112.725 250.697C112.851 250.761 112.94 250.85 112.992 250.959C113.044 251.069 113.07 251.326 113.07 251.726V259.284C113.07 259.681 113.046 259.934 112.992 260.047C112.94 260.162 112.851 260.249 112.725 260.309C112.598 260.37 112.358 260.402 112.001 260.402H111.465V262.276H114.966V264.505H117.261V262.276H118.566C118.627 262.276 118.682 262.275 118.737 262.275V264.505H121.032V262.083C121.417 262.009 121.757 261.916 122.043 261.798C122.834 261.482 123.446 261.022 123.882 260.416C124.317 259.815 124.534 259.151 124.534 258.432ZM118.178 256.208C118.945 256.208 119.518 256.28 119.893 256.422C120.267 256.565 120.548 256.776 120.733 257.048C120.92 257.329 121.014 257.669 121.014 258.07C121.014 258.543 120.879 258.946 120.617 259.284C120.354 259.622 120.032 259.844 119.652 259.949C119.277 260.058 118.8 260.113 118.225 260.113H117.237C116.908 260.113 116.706 260.092 116.632 260.058C116.557 260.024 116.504 259.958 116.472 259.87C116.446 259.799 116.43 259.557 116.424 259.141V256.208H118.178ZM120.473 253.437C120.284 253.696 120.006 253.892 119.632 254.021C119.26 254.152 118.686 254.217 117.91 254.218H116.424V250.915H117.91C118.775 250.915 119.378 250.969 119.715 251.077C120.05 251.183 120.309 251.363 120.487 251.615C120.665 251.868 120.753 252.172 120.753 252.528C120.753 252.871 120.66 253.175 120.473 253.437Z" fill="white"/>
<rect width="46" height="10" rx="3" transform="matrix(-1 0 0 1 182 245.5)" fill="#97959B"/>
<rect width="31" height="6" rx="3" transform="matrix(-1 0 0 1 167 259.5)" fill="#433F49"/>
<rect x="223.5" y="245.5" width="88" height="10" rx="3" fill="#97959B"/>
<rect x="273.5" y="259.5" width="38" height="6" rx="3" fill="#433F49"/>
<rect x="96.5" y="230.5" width="226.5" height="50" rx="11.5" stroke="#433F49"/>
<path fill-rule="evenodd" clip-rule="evenodd" d="M357.5 245.5L364.627 255.002L357.5 257.378L350.373 255.002L357.5 245.5ZM352.317 254.391L357.5 253.815V247.48L352.317 254.391ZM357.5 265.5L350.373 256.591L357.5 259.561L364.627 256.591L357.5 265.5ZM357.043 260.657L354.199 259.472L357.5 263.598V260.848L357.043 260.657Z" fill="white"/>
<rect width="64" height="10" rx="3" transform="matrix(-1 0 0 1 439.5 245.5)" fill="#97959B"/>
<rect width="35" height="6" rx="3" transform="matrix(-1 0 0 1 410.5 259.5)" fill="#433F49"/>
<rect x="499" y="245.5" width="52" height="10" rx="3" fill="#97959B"/>
<rect x="483" y="259.5" width="68" height="6" rx="3" fill="#433F49"/>
<rect x="336" y="230.5" width="226.5" height="50" rx="11.5" stroke="#433F49"/>
<path d="M119.75 312.733V310.605H124.76V307.295H111.072V310.605H116.082V312.741C112.035 312.948 109.003 313.796 109.003 314.811C109.003 315.826 112.035 316.674 116.082 316.881V323.512C116.701 323.638 117.343 323.705 118 323.705C118.598 323.705 119.183 323.65 119.75 323.545V316.889C123.881 316.697 126.997 315.84 126.997 314.811C126.997 313.782 123.881 312.925 119.75 312.733ZM118 316.119C113.486 316.119 109.827 315.439 109.827 314.6C109.827 313.884 112.493 313.283 116.082 313.123V315.556C116.69 315.643 117.303 315.688 117.916 315.688C118.529 315.688 119.142 315.643 119.75 315.556V313.115C123.423 313.265 126.173 313.872 126.173 314.6C126.173 315.439 122.514 316.119 118 316.119Z" fill="white"/>
<rect width="38" height="10" rx="3" transform="matrix(-1 0 0 1 174 305.5)" fill="#97959B"/>
<rect width="48" height="6" rx="3" transform="matrix(-1 0 0 1 184 319.5)" fill="#433F49"/>
<rect x="205.5" y="305.5" width="106" height="10" rx="3" fill="#97959B"/>
<rect x="254.5" y="319.5" width="57" height="6" rx="3" fill="#433F49"/>
<rect x="96.5" y="290.5" width="226.5" height="50" rx="11.5" stroke="#433F49"/>
<path fill-rule="evenodd" clip-rule="evenodd" d="M358.201 315.186L359.679 307.452H356.374L354.584 317.164C353.776 317.608 353.038 318.016 352.458 318.34L352.098 319.98L352.168 319.939C352.358 319.83 352.621 319.68 352.942 319.5C353.323 319.287 353.783 319.032 354.292 318.75L353.408 323.547H362.335L362.902 320.539L357.178 320.539L357.898 316.773C358.655 316.36 359.395 315.957 360.059 315.597L360.406 313.987C359.776 314.329 359.014 314.743 358.201 315.186Z" fill="white"/>
<rect width="46" height="10" rx="3" transform="matrix(-1 0 0 1 421.5 305.5)" fill="#97959B"/>
<rect width="31" height="6" rx="3" transform="matrix(-1 0 0 1 406.5 319.5)" fill="#433F49"/>
<rect x="463" y="305.5" width="88" height="10" rx="3" fill="#97959B"/>
<rect x="513" y="319.5" width="38" height="6" rx="3" fill="#433F49"/>
<rect x="336" y="290.5" width="226.5" height="50" rx="11.5" stroke="#433F49"/>
<path fill-rule="evenodd" clip-rule="evenodd" d="M114.387 371.224L114.962 368.447L120.981 368.447C124.706 368.447 127.537 371.798 126.914 375.471L126.563 377.541C126.072 380.435 123.565 382.552 120.63 382.552L112.042 382.552L112.617 379.775L120.63 379.775C122.21 379.775 123.56 378.635 123.824 377.076L124.175 375.007C124.511 373.029 122.987 371.224 120.981 371.224L114.387 371.224ZM118.208 374.11H109.575L109 376.888L117.588 376.888L118.208 374.11Z" fill="white"/>
<rect width="27" height="10" rx="3" transform="matrix(-1 0 0 1 163 365.5)" fill="#97959B"/>
<rect width="64" height="6" rx="3" transform="matrix(-1 0 0 1 200 379.5)" fill="#433F49"/>
<rect x="262.5" y="365.5" width="49" height="10" rx="3" fill="#97959B"/>
<rect x="230.5" y="379.5" width="81" height="6" rx="3" fill="#433F49"/>
<rect x="96.5" y="350.5" width="226.5" height="50" rx="11.5" stroke="#433F49"/>
<path fill-rule="evenodd" clip-rule="evenodd" d="M358.039 368.007H352.217V374.118H350.3V376.59H352.217V382.993H358.039C359.027 382.993 359.93 382.803 360.746 382.423C361.563 382.044 362.264 381.517 362.852 380.844C363.439 380.171 363.894 379.376 364.216 378.459C364.538 377.543 364.699 376.547 364.699 375.473C364.699 374.442 364.545 373.475 364.237 372.573C363.929 371.663 363.485 370.872 362.905 370.199C362.332 369.518 361.634 368.985 360.811 368.598C359.994 368.204 359.07 368.007 358.039 368.007ZM354.752 376.59V380.823H357.438C358.118 380.823 358.748 380.708 359.328 380.479C359.908 380.243 360.406 379.899 360.821 379.448C361.244 378.997 361.573 378.442 361.81 377.783C362.046 377.117 362.164 376.354 362.164 375.495C362.164 374.571 362.042 373.772 361.799 373.099C361.563 372.426 361.233 371.871 360.811 371.434C360.395 370.997 359.898 370.675 359.318 370.467C358.737 370.252 358.111 370.145 357.438 370.145H354.752V374.118H359.656V376.59H354.752Z" fill="white"/>
<rect width="33" height="10" rx="3" transform="matrix(-1 0 0 1 408.5 365.5)" fill="#97959B"/>
<rect width="61" height="6" rx="3" transform="matrix(-1 0 0 1 436.5 379.5)" fill="#433F49"/>
<rect x="455" y="365.5" width="96" height="10" rx="3" fill="#97959B"/>
<rect x="513" y="379.5" width="38" height="6" rx="3" fill="#433F49"/>
<rect x="336" y="350.5" width="226.5" height="50" rx="11.5" stroke="#433F49"/>
<rect x="95.0229" y="358" width="467.977" height="43" fill="url(#paint0_linear_865_296)"/>
<defs>
<linearGradient id="paint0_linear_865_296" x1="329.011" y1="358" x2="329.011" y2="401" gradientUnits="userSpaceOnUse">
<stop stop-color="#191A1F" stop-opacity="0"/>
<stop offset="1" stop-color="#191A1F"/>
</linearGradient>
</defs>
</svg>
