<svg width="67" height="73" viewBox="0 0 67 73" fill="none" xmlns="http://www.w3.org/2000/svg">
<path fill-rule="evenodd" clip-rule="evenodd" d="M1.135 18.6261L14.1557 6.14053C22.775 -2.12454 32.2538 -1.39965 39.424 6.10357C40.3345 7.05641 41.4556 8.72015 42.126 9.78913C42.2011 9.90056 42.268 10.0035 42.3301 10.099C42.4998 10.36 42.6336 10.5658 42.8002 10.7402C43.2555 11.2166 43.7235 11.3385 44.7374 11.0508C50.9956 9.38635 56.3577 11.3199 61.3656 16.5603C68.3651 23.8849 68.7837 33.6398 59.2475 42.7841L40.9697 60.3108C39.9916 61.2487 39.2264 61.1835 38.3159 60.2307L1.09899 21.2853C0.18848 20.3325 0.156927 19.564 1.135 18.6261ZM29.805 22.5166L26.6874 25.5061C25.7093 26.444 24.9442 26.3789 24.0337 25.4261L21.3022 22.5677C20.3916 21.6149 20.3601 20.8464 21.3381 19.9085L24.4558 16.919C26.0452 15.3949 28.2352 15.2349 29.9424 17.0214C31.7065 18.8674 31.3944 20.9926 29.805 22.5166ZM40.5726 40.0362L48.764 32.1815C51.1481 29.8953 51.6964 27.7722 49.8184 25.807C47.9974 23.9015 45.7988 24.2976 43.4147 26.5838L35.2233 34.4385C34.2452 35.3764 34.2768 36.145 35.1874 37.0978L37.9188 39.9561C38.8294 40.9089 39.5945 40.9741 40.5726 40.0362Z" fill="white"/>
<path d="M1.4988 42.951C1.11509 43.319 1.10178 43.9289 1.4691 44.3132L27.7399 71.8041C28.1072 72.1884 28.716 72.2018 29.0997 71.8338L34.3105 66.8371C34.6943 66.4692 34.7076 65.8593 34.3402 65.4749L8.06949 37.9841C7.70216 37.5997 7.09334 37.5864 6.70963 37.9544L1.4988 42.951Z" fill="white"/>
</svg>
